<svg xmlns="http://www.w3.org/2000/svg" id="Layer_2" data-name="Layer 2" viewBox="0 0 101.26 101.26"><defs><style>      .cls-1 {        fill: #fff;      }      .cls-2 {        fill: #1877f2;      }    </style></defs><g id="Layer_1-2" data-name="Layer 1"><g><path class="cls-2" d="M101.26,50.63C101.26,22.67,78.6,0,50.63,0S0,22.67,0,50.63c0,25.27,18.52,46.22,42.72,50.02v-35.38h-12.86v-14.64h12.86v-11.15c0-12.69,7.56-19.7,19.12-19.7,5.54,0,11.33,.99,11.33,.99v12.46h-6.38c-6.29,0-8.25,3.9-8.25,7.91v9.5h14.04l-2.24,14.64h-11.8v35.38c24.21-3.8,42.72-24.74,42.72-50.02Z"></path><path class="cls-1" d="M70.34,65.27l2.24-14.64h-14.04v-9.5c0-4,1.96-7.91,8.25-7.91h6.38v-12.46s-5.79-.99-11.33-.99c-11.57,0-19.12,7.01-19.12,19.7v11.15h-12.86v14.64h12.86v35.38c2.58,.4,5.22,.62,7.91,.62s5.33-.21,7.91-.62v-35.38h11.8Z"></path></g></g></svg>