<svg xmlns="http://www.w3.org/2000/svg" id="Layer_2" data-name="Layer 2" viewBox="0 0 154.53 108.8"><defs><style>      .cls-1 {        fill: #f7ac00;      }      .cls-2 {        fill: #00a148;      }      .cls-3 {        fill: #007cc1;      }      .cls-4 {        fill: #e63b25;      }      .cls-5 {        fill: #64656a;      }    </style></defs><g id="Layer_1-2" data-name="Layer 1"><g><path class="cls-3" d="M110.06,34.78c0-2.41-.38-4.73-.77-6.96h-31.69v13.14h17.78c-.79,4.25-2.8,7.85-6.4,10.28v8.56h11c6.4-5.92,10.09-14.67,10.09-25.02h0Z"></path><path class="cls-2" d="M77.5,68.01c9.15,0,16.86-3.01,22.47-8.21l-11-8.56c-3.03,2.04-6.92,3.24-11.47,3.24-8.82,0-16.31-5.97-18.98-14.01h-11.31v8.8c5.58,11.11,17.05,18.74,30.3,18.74h0Z"></path><path class="cls-1" d="M58.52,40.47c-.68-2.04-1.05-4.22-1.05-6.47s.37-4.42,1.05-6.47v-8.8h-11.31c-2.31,4.59-3.61,9.78-3.61,15.27s1.31,10.68,3.61,15.27l11.31-8.8h0Z"></path><path class="cls-4" d="M77.5,13.53c4.98,0,9.45,1.72,12.97,5.08l9.72-9.75C94.31,3.37,86.65,0,77.5,0c-13.25,0-24.72,7.63-30.3,18.74l11.31,8.8c2.67-8.05,10.16-14.01,18.98-14.01h0Z"></path><g><g><path class="cls-5" d="M4.36,102.63c-1.28-.74-2.29-1.75-3.04-3.04-.75-1.29-1.13-2.72-1.13-4.28s.38-2.99,1.13-4.28c.75-1.29,1.76-2.3,3.04-3.04,1.28-.74,2.67-1.1,4.19-1.1,1.19,0,2.3,.21,3.34,.63,1.04,.42,1.9,1.01,2.58,1.78l-1.37,1.37c-.51-.63-1.16-1.11-1.96-1.45-.8-.34-1.65-.51-2.57-.51-1.14,0-2.2,.27-3.19,.82-.98,.55-1.77,1.32-2.36,2.32-.59,1-.89,2.15-.89,3.46s.3,2.46,.89,3.46c.59,1,1.38,1.77,2.38,2.32,.99,.55,2.05,.82,3.17,.82s1.99-.17,2.71-.51c.73-.34,1.35-.78,1.88-1.34,.39-.42,.71-.93,.95-1.52,.24-.59,.39-1.25,.45-1.97h-5.97v-1.78h7.75c.08,.42,.11,.81,.11,1.17,0,.99-.16,1.95-.47,2.89s-.82,1.76-1.51,2.47c-1.49,1.61-3.46,2.41-5.92,2.41-1.52,0-2.91-.37-4.19-1.1Z"></path><path class="cls-5" d="M8.55,103.93c-1.54,0-2.99-.38-4.29-1.13h0c-1.3-.75-2.35-1.8-3.11-3.11-.77-1.31-1.15-2.79-1.15-4.38s.39-3.06,1.15-4.38c.76-1.31,1.81-2.36,3.11-3.11,1.3-.75,2.74-1.13,4.29-1.13,1.21,0,2.36,.22,3.42,.64,1.07,.43,1.96,1.04,2.65,1.83l.12,.14-1.66,1.66-.14-.17c-.49-.6-1.12-1.07-1.88-1.4-.77-.33-1.61-.49-2.49-.49-1.1,0-2.14,.27-3.09,.8-.95,.53-1.72,1.29-2.29,2.25-.57,.97-.86,2.09-.86,3.36s.29,2.39,.86,3.36c.57,.96,1.35,1.72,2.3,2.25,.96,.53,1.99,.8,3.08,.8s1.93-.16,2.63-.49c.7-.33,1.31-.76,1.82-1.3,.37-.4,.68-.89,.91-1.46,.21-.51,.35-1.08,.42-1.7h-5.95v-2.17h8.11l.03,.16c.08,.43,.12,.84,.12,1.21,0,1.01-.16,2-.48,2.96-.32,.96-.85,1.82-1.55,2.54-1.51,1.64-3.56,2.47-6.06,2.47Zm0-16.84c-1.47,0-2.85,.36-4.09,1.08-1.24,.72-2.24,1.71-2.97,2.97-.73,1.26-1.1,2.66-1.1,4.18s.37,2.92,1.1,4.18c.73,1.25,1.73,2.25,2.97,2.97h0c1.24,.72,2.61,1.08,4.09,1.08,2.39,0,4.34-.79,5.78-2.35,.67-.69,1.16-1.49,1.47-2.4,.31-.91,.46-1.87,.46-2.83,0-.3-.03-.63-.08-.97h-7.38v1.39h5.98l-.02,.21c-.06,.74-.22,1.42-.46,2.03-.25,.61-.58,1.14-.98,1.58-.54,.57-1.19,1.04-1.94,1.38-.75,.35-1.69,.52-2.8,.52s-2.26-.28-3.27-.85c-1.02-.56-1.84-1.37-2.45-2.39-.61-1.02-.92-2.22-.92-3.56s.31-2.53,.92-3.56c.61-1.02,1.43-1.83,2.44-2.39,1.01-.56,2.11-.85,3.28-.85,.94,0,1.83,.18,2.64,.52,.75,.32,1.39,.77,1.89,1.34l1.09-1.09c-.64-.68-1.43-1.21-2.38-1.59-1.01-.41-2.11-.62-3.27-.62Z"></path></g><g><path class="cls-5" d="M21.19,102.92c-.9-.54-1.6-1.27-2.11-2.21-.5-.93-.75-1.96-.75-3.08s.25-2.15,.75-3.08c.5-.93,1.2-1.67,2.11-2.21,.9-.54,1.91-.81,3.04-.81s2.14,.27,3.04,.81c.9,.54,1.6,1.28,2.11,2.21,.5,.93,.75,1.96,.75,3.08s-.25,2.15-.75,3.08c-.5,.93-1.2,1.67-2.11,2.21-.9,.54-1.91,.81-3.04,.81s-2.14-.27-3.04-.81Zm5.01-1.45c.61-.35,1.1-.86,1.46-1.52,.37-.66,.55-1.43,.55-2.32s-.18-1.66-.55-2.32c-.37-.66-.86-1.17-1.46-1.52-.61-.35-1.26-.53-1.97-.53s-1.37,.18-1.98,.53c-.62,.35-1.11,.86-1.47,1.52-.37,.66-.55,1.43-.55,2.32s.18,1.66,.55,2.32c.37,.66,.86,1.17,1.47,1.52,.62,.35,1.28,.53,1.98,.53s1.36-.18,1.97-.53Z"></path><path class="cls-5" d="M24.23,103.93c-1.16,0-2.22-.28-3.14-.84-.93-.56-1.66-1.32-2.18-2.28-.52-.95-.78-2.03-.78-3.18s.26-2.22,.78-3.18c.52-.96,1.25-1.72,2.18-2.28,.93-.56,1.99-.84,3.14-.84s2.21,.28,3.14,.84c.93,.56,1.66,1.33,2.18,2.28,.52,.96,.78,2.03,.78,3.18s-.26,2.22-.78,3.18c-.52,.96-1.25,1.73-2.18,2.28-.93,.56-1.98,.84-3.14,.84Zm0-12.2c-1.08,0-2.07,.26-2.94,.78-.87,.52-1.55,1.24-2.03,2.13-.48,.9-.73,1.91-.73,2.99s.25,2.09,.73,2.99c.48,.89,1.17,1.61,2.03,2.13h0c.86,.52,1.85,.78,2.94,.78s2.07-.26,2.94-.78c.87-.52,1.55-1.23,2.03-2.13,.48-.9,.73-1.9,.73-2.99s-.25-2.09-.73-2.99c-.48-.89-1.17-1.61-2.03-2.13s-1.85-.78-2.94-.78Zm0,10.47c-.74,0-1.44-.19-2.08-.56-.65-.37-1.17-.91-1.55-1.6-.38-.69-.58-1.5-.58-2.41s.19-1.73,.58-2.41c.38-.69,.91-1.23,1.55-1.59,1.28-.74,2.88-.74,4.15,0,.63,.37,1.15,.9,1.54,1.59,.38,.69,.58,1.5,.58,2.41s-.19,1.73-.58,2.41c-.38,.69-.9,1.23-1.54,1.6h0c-.64,.37-1.33,.56-2.07,.56Zm0-8.74c-.67,0-1.3,.17-1.88,.5-.58,.33-1.05,.82-1.4,1.44-.35,.63-.53,1.38-.53,2.22s.18,1.6,.53,2.22c.35,.62,.82,1.11,1.4,1.45,1.17,.67,2.6,.67,3.75,0h0c.57-.33,1.04-.82,1.39-1.45,.35-.63,.53-1.37,.53-2.22s-.18-1.59-.53-2.22c-.35-.63-.82-1.11-1.39-1.44-.57-.33-1.2-.5-1.87-.5Z"></path></g><g><path class="cls-5" d="M34.59,102.92c-.9-.54-1.6-1.27-2.11-2.21-.5-.93-.75-1.96-.75-3.08s.25-2.15,.75-3.08c.5-.93,1.2-1.67,2.11-2.21,.9-.54,1.91-.81,3.04-.81s2.14,.27,3.04,.81c.9,.54,1.6,1.28,2.11,2.21,.5,.93,.75,1.96,.75,3.08s-.25,2.15-.75,3.08c-.5,.93-1.2,1.67-2.11,2.21-.9,.54-1.91,.81-3.04,.81s-2.14-.27-3.04-.81Zm5.01-1.45c.61-.35,1.1-.86,1.46-1.52,.37-.66,.55-1.43,.55-2.32s-.18-1.66-.55-2.32c-.37-.66-.86-1.17-1.46-1.52-.61-.35-1.26-.53-1.97-.53s-1.37,.18-1.98,.53c-.62,.35-1.11,.86-1.47,1.52-.37,.66-.55,1.43-.55,2.32s.18,1.66,.55,2.32c.37,.66,.86,1.17,1.47,1.52,.62,.35,1.28,.53,1.98,.53s1.36-.18,1.97-.53Z"></path><path class="cls-5" d="M37.63,103.93c-1.16,0-2.22-.28-3.14-.84-.93-.56-1.66-1.32-2.18-2.28-.52-.95-.78-2.03-.78-3.18s.26-2.22,.78-3.18c.52-.96,1.25-1.72,2.18-2.28,.93-.56,1.99-.84,3.14-.84s2.21,.28,3.14,.84c.93,.56,1.66,1.33,2.18,2.28,.52,.96,.78,2.03,.78,3.18s-.26,2.22-.78,3.18c-.52,.96-1.25,1.73-2.18,2.28-.93,.56-1.98,.84-3.14,.84Zm0-12.2c-1.08,0-2.07,.26-2.94,.78s-1.55,1.24-2.03,2.13c-.48,.9-.73,1.91-.73,2.99s.25,2.09,.73,2.99c.48,.89,1.17,1.61,2.03,2.13h0c.86,.52,1.85,.78,2.94,.78s2.07-.26,2.94-.78c.87-.52,1.55-1.23,2.03-2.13,.48-.9,.73-1.9,.73-2.99s-.25-2.09-.73-2.99c-.48-.89-1.17-1.61-2.03-2.13-.87-.52-1.85-.78-2.94-.78Zm0,10.47c-.74,0-1.44-.19-2.08-.56-.65-.37-1.17-.91-1.55-1.6-.38-.69-.58-1.5-.58-2.41s.19-1.73,.58-2.41c.38-.69,.91-1.23,1.55-1.59,1.28-.74,2.88-.74,4.15,0,.63,.37,1.15,.9,1.54,1.59,.38,.69,.58,1.5,.58,2.41s-.19,1.73-.58,2.41c-.38,.69-.9,1.23-1.54,1.6h0c-.64,.37-1.33,.56-2.07,.56Zm0-8.74c-.67,0-1.3,.17-1.88,.5-.58,.33-1.05,.82-1.4,1.44-.35,.63-.53,1.38-.53,2.22s.18,1.6,.53,2.22c.35,.62,.82,1.11,1.4,1.45,1.17,.67,2.6,.67,3.75,0h0c.57-.33,1.04-.82,1.39-1.45,.35-.63,.53-1.37,.53-2.22s-.18-1.59-.53-2.22c-.35-.63-.82-1.11-1.39-1.44-.57-.33-1.2-.5-1.87-.5Z"></path></g><g><path class="cls-5" d="M47.44,107.65c-.88-.63-1.47-1.39-1.77-2.27l1.73-.74c.26,.66,.68,1.2,1.27,1.61,.59,.41,1.29,.62,2.11,.62,1.19,0,2.11-.33,2.76-.99,.65-.66,.98-1.61,.98-2.84v-1.28h-.09c-.38,.58-.9,1.06-1.59,1.43-.68,.37-1.46,.55-2.33,.55-.99,0-1.9-.26-2.71-.77-.82-.52-1.47-1.24-1.95-2.16-.48-.93-.72-1.98-.72-3.16s.24-2.22,.72-3.15c.48-.93,1.13-1.66,1.95-2.17,.82-.52,1.72-.78,2.71-.78,.87,0,1.65,.18,2.33,.55,.68,.37,1.21,.85,1.59,1.45h.09v-1.64h1.82v11.03c0,1.85-.51,3.25-1.53,4.22-1.02,.97-2.36,1.45-4.03,1.45-1.35,0-2.47-.32-3.34-.95Zm5.22-6.18c.56-.35,1.01-.85,1.35-1.51,.34-.66,.51-1.43,.51-2.33s-.17-1.7-.51-2.36c-.34-.66-.79-1.15-1.35-1.5-.56-.34-1.19-.51-1.88-.51s-1.32,.18-1.89,.53-1.02,.85-1.36,1.51c-.34,.66-.51,1.43-.51,2.33s.17,1.68,.51,2.35c.34,.66,.79,1.17,1.36,1.51s1.2,.52,1.89,.52,1.32-.18,1.88-.53Z"></path><path class="cls-5" d="M50.78,108.8c-1.39,0-2.55-.33-3.46-.98-.91-.65-1.53-1.45-1.84-2.37l-.06-.17,2.09-.89,.07,.19c.24,.62,.64,1.13,1.2,1.52,.56,.39,1.23,.58,1.99,.58,1.12,0,2.01-.32,2.62-.93,.61-.62,.92-1.53,.92-2.7v-.8c-.36,.44-.83,.82-1.39,1.12-.71,.38-1.52,.57-2.42,.57-1.02,0-1.97-.27-2.82-.8-.85-.53-1.52-1.29-2.02-2.24-.49-.95-.74-2.05-.74-3.26s.25-2.29,.74-3.24c.5-.96,1.17-1.72,2.02-2.25,.85-.54,1.79-.81,2.82-.81,.9,0,1.71,.19,2.42,.58,.56,.3,1.02,.68,1.39,1.13v-1.35h2.22v11.23c0,1.89-.54,3.36-1.59,4.37-1.05,1-2.46,1.51-4.17,1.51Zm-4.86-3.31c.3,.77,.85,1.44,1.63,2.01,.84,.6,1.93,.91,3.23,.91,1.61,0,2.92-.47,3.9-1.4,.97-.93,1.47-2.3,1.47-4.08v-10.84h-1.43v1.64h-.4l-.06-.09c-.36-.57-.86-1.03-1.51-1.38-.65-.35-1.4-.53-2.24-.53-.95,0-1.83,.25-2.61,.74-.78,.49-1.42,1.2-1.88,2.1-.46,.9-.7,1.93-.7,3.06s.24,2.18,.7,3.07c.46,.89,1.09,1.59,1.88,2.09,.78,.49,1.66,.74,2.61,.74,.84,0,1.59-.18,2.24-.53s1.16-.81,1.52-1.36l.06-.09h.39v1.48c0,1.27-.35,2.28-1.04,2.97-.69,.7-1.66,1.05-2.9,1.05-.85,0-1.59-.22-2.22-.66-.57-.39-.99-.9-1.27-1.51l-1.38,.59Zm4.86-3.29c-.72,0-1.39-.18-1.99-.54-.6-.36-1.08-.89-1.44-1.59-.35-.69-.53-1.51-.53-2.43s.18-1.74,.53-2.42c.35-.68,.84-1.22,1.43-1.59,.6-.37,1.27-.56,1.99-.56s1.39,.18,1.98,.54c.59,.36,1.07,.89,1.42,1.57,.35,.68,.53,1.51,.53,2.45s-.18,1.74-.53,2.42c-.35,.68-.83,1.22-1.42,1.59-.59,.37-1.26,.56-1.98,.56Zm0-8.74c-.65,0-1.25,.17-1.79,.5-.54,.33-.97,.81-1.29,1.43-.32,.63-.49,1.38-.49,2.24s.16,1.62,.49,2.26c.32,.63,.75,1.11,1.29,1.43,.54,.32,1.14,.49,1.79,.49s1.25-.17,1.78-.5c.53-.33,.96-.81,1.28-1.43,.32-.62,.49-1.38,.49-2.24s-.16-1.64-.49-2.27c-.32-.62-.75-1.1-1.28-1.42-.53-.32-1.13-.48-1.78-.48Z"></path></g><g><path class="cls-5" d="M59.16,87.25h1.91v16.12h-1.91v-16.12Z"></path><path class="cls-5" d="M61.27,103.57h-2.31v-16.52h2.31v16.52Zm-1.91-.39h1.52v-15.73h-1.52v15.73Z"></path></g><g><path class="cls-5" d="M66.07,102.95c-.87-.53-1.55-1.25-2.04-2.17-.49-.92-.73-1.96-.73-3.12s.23-2.13,.69-3.06c.46-.93,1.11-1.67,1.95-2.23,.84-.56,1.82-.83,2.93-.83s2.1,.25,2.93,.76c.83,.5,1.46,1.2,1.9,2.08,.44,.89,.66,1.9,.66,3.04,0,.22-.02,.42-.07,.58h-9.07c.05,.87,.26,1.61,.63,2.21,.38,.6,.85,1.05,1.43,1.35,.58,.3,1.18,.45,1.81,.45,1.47,0,2.6-.69,3.4-2.07l1.62,.79c-.5,.93-1.17,1.67-2.02,2.21-.85,.54-1.87,.81-3.07,.81-1.1,0-2.08-.26-2.95-.79Zm6.26-6.53c-.03-.48-.17-.96-.41-1.44-.24-.48-.62-.89-1.14-1.21-.52-.33-1.17-.5-1.95-.5-.9,0-1.66,.29-2.29,.87-.62,.58-1.03,1.34-1.23,2.29h7Z"></path><path class="cls-5" d="M69.02,103.93c-1.13,0-2.15-.27-3.05-.82h0c-.9-.54-1.61-1.3-2.11-2.25-.5-.95-.76-2.03-.76-3.21s.24-2.19,.71-3.15c.47-.96,1.15-1.73,2.02-2.31,.87-.58,1.89-.87,3.04-.87s2.18,.26,3.03,.78c.85,.52,1.52,1.25,1.98,2.16,.45,.91,.69,1.96,.69,3.13,0,.24-.03,.46-.07,.64l-.04,.14h-9.01c.06,.74,.26,1.39,.59,1.91,.35,.57,.81,1,1.35,1.28,.55,.28,1.13,.43,1.72,.43,1.41,0,2.46-.65,3.23-1.97l.09-.16,1.97,.96-.1,.18c-.51,.96-1.21,1.72-2.08,2.28-.87,.56-1.94,.84-3.18,.84Zm-2.85-1.15c.84,.5,1.79,.76,2.85,.76,1.16,0,2.16-.26,2.97-.78,.76-.48,1.38-1.14,1.85-1.95l-1.27-.62c-.83,1.34-1.99,2.01-3.48,2.01-.66,0-1.3-.16-1.9-.47-.61-.32-1.11-.79-1.51-1.42-.39-.63-.61-1.4-.66-2.3v-.21s9.11,0,9.11,0c.02-.12,.03-.24,.03-.39,0-1.1-.22-2.1-.64-2.95-.42-.85-1.04-1.52-1.83-2-.79-.48-1.74-.73-2.82-.73s-2.01,.27-2.82,.8c-.81,.53-1.44,1.26-1.88,2.15-.44,.9-.67,1.9-.67,2.98s.24,2.14,.71,3.03c.47,.89,1.13,1.59,1.97,2.1h0Zm6.37-6.16h-7.45l.05-.24c.2-.98,.63-1.78,1.29-2.39,.66-.61,1.47-.92,2.42-.92,.82,0,1.51,.18,2.05,.53,.54,.35,.95,.78,1.21,1.29,.25,.5,.39,1.01,.43,1.52v.21Zm-6.95-.39h6.54c-.05-.38-.17-.77-.37-1.16-.22-.45-.58-.83-1.07-1.14-.48-.31-1.1-.46-1.84-.46-.85,0-1.57,.27-2.15,.81-.54,.5-.91,1.15-1.11,1.94Z"></path></g><g><path class="cls-5" d="M81.29,87.25h5.43c.9,0,1.73,.2,2.5,.61,.76,.41,1.38,.97,1.83,1.7,.46,.73,.69,1.55,.69,2.47s-.23,1.74-.69,2.47c-.46,.73-1.07,1.29-1.83,1.7-.77,.41-1.6,.61-2.5,.61h-3.54v6.58h-1.89v-16.12Zm5.47,7.72c.6,0,1.13-.14,1.59-.43,.46-.28,.81-.65,1.07-1.1s.38-.92,.38-1.42-.13-.97-.38-1.42-.61-.82-1.07-1.1c-.46-.28-.99-.43-1.59-.43h-3.58v5.9h3.58Z"></path><path class="cls-5" d="M83.38,103.57h-2.29v-16.52h5.62c.93,0,1.8,.21,2.59,.63,.79,.42,1.43,1.02,1.91,1.77,.48,.76,.72,1.62,.72,2.57s-.24,1.81-.72,2.57c-.47,.75-1.11,1.35-1.91,1.77-.79,.42-1.66,.63-2.59,.63h-3.34v6.58Zm-1.89-.39h1.5v-6.58h3.73c.87,0,1.68-.2,2.41-.58,.73-.39,1.32-.94,1.76-1.63,.44-.69,.66-1.49,.66-2.36s-.22-1.67-.66-2.36c-.44-.69-1.03-1.24-1.76-1.63-.73-.39-1.54-.58-2.41-.58h-5.23v15.73Zm5.28-8.01h-3.78v-6.29h3.78c.63,0,1.2,.15,1.69,.46,.48,.3,.87,.7,1.13,1.17,.27,.48,.41,.99,.41,1.51s-.14,1.04-.41,1.52c-.27,.48-.65,.87-1.13,1.17-.49,.3-1.05,.46-1.69,.46Zm-3.38-.39h3.38c.56,0,1.06-.13,1.48-.4,.43-.27,.76-.61,1-1.03,.24-.42,.36-.86,.36-1.32s-.12-.9-.36-1.32c-.24-.42-.58-.77-1-1.03-.42-.26-.92-.4-1.48-.4h-3.38v5.51Z"></path></g><g><path class="cls-5" d="M95.59,103.24c-.66-.33-1.17-.78-1.53-1.36-.36-.58-.54-1.23-.54-1.97,0-1.22,.46-2.17,1.37-2.85,.91-.68,2.07-1.02,3.47-1.02,.69,0,1.33,.08,1.93,.22,.59,.15,1.05,.32,1.36,.52v-.7c0-.86-.3-1.54-.9-2.06s-1.36-.78-2.27-.78c-.65,0-1.24,.14-1.78,.42-.54,.28-.97,.66-1.28,1.16l-1.44-1.08c.45-.69,1.07-1.23,1.86-1.62,.79-.39,1.66-.59,2.62-.59,1.56,0,2.79,.41,3.68,1.23,.89,.82,1.34,1.93,1.34,3.34v7.27h-1.82v-1.64h-.09c-.33,.56-.83,1.03-1.49,1.42-.66,.39-1.4,.58-2.23,.58s-1.59-.16-2.25-.5Zm4.23-1.69c.56-.33,1-.77,1.33-1.33,.33-.56,.5-1.16,.5-1.82-.36-.24-.8-.44-1.33-.59-.53-.15-1.08-.22-1.67-.22-1.05,0-1.84,.22-2.37,.65-.53,.44-.8,1-.8,1.69,0,.63,.24,1.14,.72,1.53,.48,.39,1.09,.59,1.82,.59,.65,0,1.25-.16,1.8-.5Z"></path><path class="cls-5" d="M97.84,103.93c-.87,0-1.66-.17-2.34-.52h0c-.69-.34-1.23-.82-1.61-1.43-.38-.61-.57-1.3-.57-2.07,0-1.27,.49-2.29,1.45-3.01,.95-.7,2.15-1.06,3.59-1.06,.7,0,1.36,.08,1.97,.23,.45,.12,.82,.24,1.12,.38v-.37c0-.8-.27-1.43-.83-1.91-.56-.48-1.28-.73-2.15-.73-.61,0-1.18,.13-1.69,.4-.51,.26-.91,.63-1.21,1.09l-.11,.18-1.76-1.32,.1-.15c.47-.72,1.12-1.29,1.93-1.69,.81-.4,1.72-.61,2.71-.61,1.6,0,2.89,.43,3.81,1.28,.93,.85,1.4,2.03,1.4,3.49v7.47h-2.22v-1.34c-.33,.41-.76,.78-1.28,1.09-.69,.41-1.47,.61-2.33,.61Zm.52-7.7c-1.35,0-2.47,.33-3.35,.99-.87,.65-1.29,1.53-1.29,2.69,0,.7,.17,1.32,.51,1.87,.34,.55,.83,.98,1.45,1.29h0c.63,.32,1.36,.48,2.16,.48s1.5-.19,2.13-.56c.63-.37,1.1-.83,1.42-1.35l.06-.1h.4v1.64h1.43v-7.08c0-1.35-.43-2.42-1.28-3.2-.85-.78-2.05-1.17-3.55-1.17-.93,0-1.78,.19-2.54,.57-.69,.34-1.26,.81-1.68,1.4l1.13,.84c.32-.44,.74-.8,1.24-1.05,.56-.29,1.19-.44,1.87-.44,.96,0,1.77,.28,2.4,.82,.64,.56,.97,1.3,.97,2.21v1.05l-.3-.19c-.3-.18-.74-.35-1.31-.5-.58-.14-1.21-.22-1.88-.22Zm-.34,6.01c-.78,0-1.43-.21-1.95-.63-.53-.43-.79-.99-.79-1.68,0-.75,.29-1.37,.87-1.84,.56-.46,1.41-.7,2.5-.7,.6,0,1.18,.08,1.72,.23,.54,.16,1.01,.36,1.38,.61l.09,.06v.11c0,.69-.18,1.34-.52,1.92-.35,.58-.82,1.05-1.4,1.4h0c-.58,.35-1.22,.52-1.9,.52Zm.63-4.46c-1,0-1.76,.2-2.25,.61-.49,.4-.73,.9-.73,1.54,0,.57,.21,1.02,.65,1.38,.44,.36,1.01,.54,1.7,.54,.61,0,1.18-.16,1.7-.47,.52-.31,.95-.74,1.26-1.26,.29-.49,.45-1.04,.47-1.62-.32-.2-.72-.37-1.18-.5-.51-.14-1.05-.22-1.61-.22Z"></path></g><g><path class="cls-5" d="M105.81,92.07h1.83v1.83h.09c.27-.68,.73-1.2,1.37-1.58s1.35-.56,2.12-.56c.33,0,.61,.02,.83,.07v1.96c-.26-.06-.6-.09-1.03-.09-.98,0-1.77,.32-2.38,.97-.61,.65-.91,1.49-.91,2.52v6.37h-1.91v-11.48Zm11.65,11.43c-.4-.15-.73-.36-1-.62-.3-.29-.52-.63-.68-1.01-.15-.38-.22-.85-.22-1.4v-6.85h-2v-1.73h2v-3.24h1.91v3.24h2.79v1.73h-2.79v6.4c0,.64,.12,1.12,.36,1.43,.28,.34,.7,.51,1.24,.51,.44,0,.86-.13,1.26-.38v1.87c-.23,.1-.45,.18-.69,.22-.23,.05-.53,.07-.89,.07-.47,0-.9-.08-1.29-.23Z"></path><path class="cls-5" d="M118.76,103.93c-.49,0-.94-.08-1.37-.24-.42-.16-.78-.38-1.07-.66-.32-.31-.56-.67-.72-1.08-.16-.4-.24-.9-.24-1.47v-6.66h-2v-2.13h2v-3.24h2.31v3.24h2.79v2.13h-2.79v6.2c0,.6,.11,1.04,.32,1.31,.24,.29,.6,.43,1.08,.43,.4,0,.78-.12,1.16-.35l.3-.19v2.35l-.11,.05c-.25,.11-.49,.19-.73,.24-.24,.05-.54,.07-.93,.07Zm-5-10.5h2v7.05c0,.53,.07,.97,.21,1.33s.35,.67,.63,.94c.25,.24,.57,.43,.94,.58,.38,.14,.79,.22,1.22,.22,.35,0,.64-.02,.85-.06,.18-.03,.35-.09,.53-.16v-1.41c-.34,.16-.7,.25-1.06,.25-.6,0-1.07-.19-1.39-.58-.28-.35-.41-.86-.41-1.55v-6.59h2.79v-1.34h-2.79v-3.24h-1.52v3.24h-2v1.34Zm-5.83,10.32h-2.31v-11.88h2.22v1.38c.29-.45,.68-.82,1.17-1.11,.68-.39,1.42-.59,2.22-.59,.34,0,.63,.02,.87,.07l.16,.03v2.37l-.24-.06c-.24-.06-.57-.08-.99-.08-.93,0-1.66,.3-2.23,.91-.57,.61-.86,1.41-.86,2.39v6.57Zm-1.91-.39h1.52v-6.18c0-1.08,.32-1.98,.97-2.66,.64-.68,1.49-1.03,2.52-1.03,.33,0,.61,.02,.84,.05v-1.56c-.18-.02-.4-.04-.64-.04-.73,0-1.4,.18-2.02,.54-.61,.36-1.03,.84-1.29,1.48l-.05,.12h-.42v-1.83h-1.43v11.09Z"></path></g><g><path class="cls-5" d="M122.45,91.89h1.83v1.69h.09c.32-.57,.82-1.05,1.51-1.45,.69-.4,1.43-.6,2.21-.6,1.38,0,2.44,.4,3.16,1.2,.73,.8,1.09,1.9,1.09,3.28v7.36h-1.91v-7.07c0-1.07-.26-1.84-.77-2.32-.51-.48-1.21-.72-2.09-.72-.62,0-1.17,.17-1.65,.52-.49,.35-.87,.8-1.14,1.36-.27,.56-.41,1.15-.41,1.77v6.46h-1.91v-11.48Z"></path><path class="cls-5" d="M132.53,103.57h-2.31v-7.27c0-1-.24-1.73-.7-2.18-.47-.44-1.13-.67-1.96-.67-.57,0-1.09,.16-1.54,.48-.46,.32-.82,.76-1.07,1.29-.26,.53-.39,1.1-.39,1.68v6.66h-2.31v-11.88h2.22v1.37c.32-.42,.76-.79,1.3-1.1,.72-.41,1.49-.62,2.31-.62,1.43,0,2.55,.43,3.31,1.27,.76,.84,1.14,1.99,1.14,3.41v7.56Zm-1.91-.39h1.52v-7.17c0-1.32-.35-2.38-1.04-3.14-.68-.76-1.7-1.14-3.02-1.14-.74,0-1.45,.19-2.11,.57-.66,.38-1.14,.84-1.43,1.38l-.06,.1h-.4v-1.69h-1.43v11.09h1.52v-6.26c0-.64,.14-1.27,.43-1.85,.28-.59,.68-1.07,1.2-1.44,.52-.37,1.11-.55,1.77-.55,.93,0,1.68,.26,2.23,.77,.55,.52,.83,1.35,.83,2.46v6.87Z"></path></g><g><path class="cls-5" d="M137.24,102.95c-.87-.53-1.55-1.25-2.04-2.17-.49-.92-.73-1.96-.73-3.12s.23-2.13,.69-3.06c.46-.93,1.11-1.67,1.95-2.23,.84-.56,1.82-.83,2.93-.83s2.1,.25,2.93,.76c.83,.5,1.46,1.2,1.9,2.08,.44,.89,.66,1.9,.66,3.04,0,.22-.02,.42-.07,.58h-9.07c.04,.87,.26,1.61,.63,2.21,.38,.6,.85,1.05,1.43,1.35,.58,.3,1.18,.45,1.81,.45,1.47,0,2.6-.69,3.4-2.07l1.62,.79c-.5,.93-1.17,1.67-2.02,2.21-.85,.54-1.87,.81-3.07,.81-1.09,0-2.08-.26-2.95-.79Zm6.26-6.53c-.03-.48-.17-.96-.41-1.44-.24-.48-.62-.89-1.14-1.21-.52-.33-1.17-.5-1.95-.5-.9,0-1.66,.29-2.29,.87-.62,.58-1.03,1.34-1.23,2.29h7Z"></path><path class="cls-5" d="M140.19,103.93c-1.13,0-2.15-.27-3.05-.82h0c-.9-.54-1.61-1.3-2.11-2.25-.5-.95-.76-2.03-.76-3.21s.24-2.2,.71-3.15c.47-.96,1.15-1.73,2.01-2.31,.87-.58,1.89-.87,3.04-.87s2.17,.26,3.03,.78c.86,.52,1.52,1.25,1.98,2.16,.46,.91,.69,1.96,.69,3.13,0,.24-.02,.45-.07,.64l-.04,.15h-9.01c.06,.74,.26,1.38,.59,1.91,.35,.57,.81,1,1.35,1.28,.55,.28,1.13,.43,1.72,.43,1.41,0,2.47-.65,3.23-1.97l.09-.16,1.97,.96-.1,.18c-.51,.96-1.21,1.72-2.08,2.28-.87,.56-1.95,.84-3.18,.84Zm-2.85-1.15c.84,.5,1.79,.76,2.85,.76,1.16,0,2.16-.26,2.97-.78,.76-.48,1.38-1.14,1.85-1.95l-1.27-.62c-.83,1.34-1.99,2.01-3.48,2.01-.66,0-1.3-.16-1.9-.47-.61-.32-1.11-.79-1.51-1.42-.39-.63-.61-1.4-.66-2.3v-.21s9.11,0,9.11,0c.02-.12,.03-.25,.03-.39,0-1.1-.22-2.09-.64-2.95-.42-.85-1.04-1.52-1.83-2-.79-.48-1.74-.73-2.82-.73s-2.01,.27-2.82,.8c-.81,.53-1.44,1.26-1.88,2.15-.44,.9-.67,1.9-.67,2.98s.24,2.13,.71,3.03c.47,.89,1.13,1.59,1.97,2.1h0Zm6.37-6.16h-7.45l.05-.24c.2-.98,.64-1.79,1.29-2.39,.66-.61,1.47-.92,2.42-.92,.82,0,1.51,.18,2.05,.53,.54,.35,.95,.78,1.21,1.29,.25,.5,.4,1.01,.43,1.52v.21Zm-6.95-.39h6.54c-.05-.38-.17-.77-.37-1.16-.22-.45-.58-.83-1.07-1.14-.48-.31-1.1-.46-1.84-.46-.84,0-1.57,.27-2.15,.81-.54,.5-.91,1.15-1.11,1.94Z"></path></g><g><path class="cls-5" d="M147.73,91.89h1.83v1.85h.09c.23-.63,.66-1.16,1.31-1.58,.65-.42,1.32-.63,2.03-.63,.53,0,.98,.08,1.35,.25v2.05c-.48-.24-1.02-.36-1.62-.36-.56,0-1.07,.16-1.53,.47-.47,.32-.84,.74-1.11,1.28-.28,.53-.42,1.11-.42,1.73v6.43h-1.91v-11.48Z"></path><path class="cls-5" d="M149.84,103.57h-2.31v-11.88h2.22v1.38c.26-.41,.63-.77,1.09-1.07,.68-.44,1.39-.66,2.13-.66,.55,0,1.03,.09,1.43,.26l.12,.05v2.5l-.28-.14c-.45-.23-.97-.34-1.53-.34-.51,0-.99,.15-1.42,.44-.44,.3-.79,.7-1.05,1.2-.26,.5-.4,1.05-.4,1.63v6.63Zm-1.91-.39h1.52v-6.24c0-.65,.15-1.26,.44-1.82,.29-.56,.69-1.01,1.18-1.35,.5-.34,1.05-.51,1.64-.51,.51,0,.99,.09,1.43,.26v-1.61c-.33-.12-.71-.18-1.15-.18-.66,0-1.31,.2-1.92,.6-.6,.39-1.02,.89-1.23,1.48l-.05,.13h-.42v-1.85h-1.43v11.09Z"></path></g></g></g></g></svg>