<svg xmlns="http://www.w3.org/2000/svg" xmlns:xlink="http://www.w3.org/1999/xlink" id="Layer_1" x="0px" y="0px" viewBox="0 0 172.3 57.2" style="enable-background:new 0 0 172.3 57.2;" xml:space="preserve"><style type="text/css">	.st0{fill:#0166FF;}</style><path class="st0" d="M18.3,13.4c0.9,0.6,2.2,1,3.6,1c2.1,0,3.3-1.1,3.3-2.7c0-1.5-0.8-2.3-2.9-3.1c-2.5-0.9-4.1-2.2-4.1-4.4 c0-2.4,2-4.2,5-4.2c1.6,0,2.8,0.4,3.5,0.8L26,2.4c-0.5-0.3-1.5-0.7-3-0.7c-2.1,0-2.9,1.3-2.9,2.3c0,1.5,1,2.2,3.1,3 c2.6,1,4,2.3,4,4.6c0,2.4-1.8,4.5-5.5,4.5c-1.5,0-3.1-0.4-4-1L18.3,13.4L18.3,13.4L18.3,13.4z"></path><path class="st0" d="M137.2,15.4c-0.7,0.4-2.2,0.7-4.1,0.7c-4.4,0-7.7-2.8-7.7-7.9s3.3-8.2,8.2-8.2c1.9,0,3.2,0.4,3.7,0.7l-0.5,1.6 c-0.8-0.4-1.9-0.6-3.1-0.6c-3.7,0-6.1,2.3-6.1,6.4c0,3.8,2.2,6.3,6,6.3c1.2,0,2.5-0.3,3.3-0.6L137.2,15.4L137.2,15.4L137.2,15.4z"></path><path class="st0" d="M154.8,0.3v6.5h7.6V0.3h2v15.6h-2V8.6h-7.6v7.3h-2V0.3H154.8z"></path><path class="st0" d="M53.6,8.6h-6.1v5.6h6.8v1.7h-8.8V0.3H54V2h-6.4v4.9h6.1L53.6,8.6L53.6,8.6L53.6,8.6z"></path><path class="st0" d="M99.5,0.5c1-0.2,2.5-0.3,3.9-0.3c2.2,0,3.6,0.4,4.5,1.3c0.8,0.7,1.2,1.8,1.2,3c0,2.1-1.3,3.4-2.9,4v0.1 c1.2,0.4,1.9,1.5,2.3,3.2c0.5,2.2,0.9,3.7,1.2,4.3h-2.1c-0.3-0.4-0.6-1.8-1-3.7c-0.5-2.2-1.3-3-3.1-3h-1.9v6.8h-2L99.5,0.5 C99.5,0.5,99.5,0.5,99.5,0.5z M101.6,7.6h2.1c2.2,0,3.5-1.2,3.5-3c0-2-1.5-2.9-3.6-2.9c-1,0-1.7,0.1-2,0.2V7.6L101.6,7.6z"></path><path class="st0" d="M73.9,11l-1.6,4.9h-2.1l5.3-15.6H78l5.3,15.6h-2.2L79.5,11L73.9,11L73.9,11z M79.1,9.4l-1.5-4.5 c-0.3-1-0.6-2-0.8-2.8h-0.1c-0.2,0.9-0.5,1.9-0.8,2.8l-1.5,4.5H79.1L79.1,9.4z"></path><path class="st0" d="M45.8,27.5h2v13.9h6.7v1.7h-8.7L45.8,27.5L45.8,27.5z"></path><path class="st0" d="M83.8,35.2c0,5.4-3.3,8.2-7.2,8.2s-7-3.2-7-7.9c0-5,3.1-8.2,7.2-8.2S83.8,30.6,83.8,35.2L83.8,35.2z M71.7,35.5 c0,3.3,1.8,6.3,5,6.3s5-2.9,5-6.5c0-3.1-1.6-6.4-5-6.4S71.7,32.1,71.7,35.5C71.7,35.5,71.7,35.5,71.7,35.5z"></path><path class="st0" d="M154.8,27.6h2v13.9h6.7v1.7h-8.7L154.8,27.6L154.8,27.6L154.8,27.6z"></path><path class="st0" d="M109.9,43c-0.7,0.4-2.2,0.7-4.1,0.7c-4.4,0-7.7-2.8-7.7-7.9s3.3-8.2,8.2-8.2c1.9,0,3.2,0.4,3.7,0.7l-0.5,1.6 c-0.8-0.4-1.8-0.6-3.2-0.6c-3.7,0-6.1,2.3-6.1,6.4c0,3.8,2.2,6.3,6,6.3c1.2,0,2.5-0.3,3.3-0.7L109.9,43L109.9,43L109.9,43z"></path><path class="st0" d="M128.4,38.3l-1.6,4.9h-2.1l5.3-15.6h2.4l5.3,15.6h-2.2l-1.7-4.9H128.4L128.4,38.3z M133.6,36.7l-1.5-4.5 c-0.4-1-0.6-2-0.8-2.9h-0.1c-0.2,0.9-0.5,1.9-0.8,2.8l-1.5,4.5H133.6L133.6,36.7z"></path><path class="st0" d="M23.2,42.6v-4.1h-7v-1.3l6.7-9.6h2.2v9.4h2.1v1.6h-2.1v4.1H23.2z M23.2,36.9v-5c0-0.8,0-1.6,0.1-2.4h-0.1 c-0.5,0.9-0.8,1.5-1.2,2.2l-3.7,5.1v0L23.2,36.9L23.2,36.9z"></path><rect x="22.5" y="20.8" class="st0" width="149.9" height="1.6"></rect><path class="st0" d="M12.6,44.7c-5.4-5.5-5.4-14.3,0-19.8s14.3-5.5,19.8,0s5.5,14.3,0,19.8S18,50.1,12.6,44.7z M31.2,26 c-4.8-4.8-12.6-4.8-17.4,0s-4.8,12.6,0,17.4s12.6,4.8,17.4,0S36,30.9,31.2,26L31.2,26z"></path><path class="st0" d="M13.1,46.2L11,48.3l-2-2l2.1-2.1c0.3,0.4,0.6,0.7,0.9,1S12.7,45.9,13.1,46.2z"></path><rect x="-0.3" y="49.9" transform="matrix(0.7071 -0.7071 0.7071 0.7071 -35.0826 19.0068)" class="st0" width="11.5" height="3.8"></rect></svg>