<svg xmlns="http://www.w3.org/2000/svg" id="Layer_2" data-name="Layer 2" viewBox="0 0 344.55 118.44"><defs><style>      .cls-1 {        fill: #009fe3;      }      .cls-2 {        fill: #004226;      }      .cls-3 {        fill: #ea5b0c;      }      .cls-4 {        fill: #fff;      }      .cls-5 {        fill: #fdc300;      }      .cls-6 {        fill: #7c7c7b;      }      .cls-7 {        fill: #dadada;      }      .cls-8 {        fill: #95c11f;      }    </style></defs><g id="Layer_1-2" data-name="Layer 1"><g><rect class="cls-4" x="0" y="0" width="344.55" height="118.44"></rect><rect class="cls-2" y="0" width="43.07" height="118.44"></rect><g><path class="cls-4" d="M31.9,79.43v11.81h-2l-5.73-5.71c-1.46-1.46-2.67-2.5-3.64-3.12-.97-.62-2.01-.94-3.11-.94s-2.01,.32-2.62,.97-.93,1.57-.93,2.76c0,1.75,.75,3.43,2.24,5.03h-2.35c-1.19-1.53-1.79-3.31-1.79-5.34,0-1.75,.47-3.13,1.42-4.13,.95-1,2.22-1.5,3.81-1.5,1.26,0,2.49,.35,3.68,1.04,1.2,.69,2.69,1.94,4.46,3.73l4.47,4.52h.05v-9.12h2.02Z"></path><path class="cls-4" d="M32.22,68.01c0,1.94-.83,3.46-2.5,4.55-1.67,1.09-4.08,1.63-7.23,1.63-3.46,0-6.08-.57-7.86-1.7-1.78-1.13-2.67-2.77-2.67-4.91,0-4.1,3.35-6.15,10.05-6.15,3.32,0,5.85,.58,7.59,1.74,1.75,1.16,2.62,2.77,2.62,4.85Zm-18.36-.31c0,2.8,2.84,4.2,8.52,4.2,5.3,0,7.96-1.37,7.96-4.11s-2.7-4.06-8.09-4.06-8.38,1.33-8.38,3.98Z"></path><path class="cls-4" d="M31.9,45.05v11.81h-2l-5.73-5.71c-1.46-1.46-2.67-2.5-3.64-3.12-.97-.62-2.01-.94-3.11-.94s-2.01,.32-2.62,.97c-.62,.65-.93,1.57-.93,2.76,0,1.75,.75,3.43,2.24,5.03h-2.35c-1.19-1.53-1.79-3.31-1.79-5.34,0-1.75,.47-3.13,1.42-4.13,.95-1,2.22-1.5,3.81-1.5,1.26,0,2.49,.35,3.68,1.04,1.2,.69,2.69,1.94,4.46,3.73l4.47,4.53h.05v-9.12h2.02Z"></path><path class="cls-4" d="M31.9,27.86v11.81h-2l-5.73-5.71c-1.46-1.46-2.67-2.5-3.64-3.12-.97-.62-2.01-.94-3.11-.94s-2.01,.32-2.62,.97c-.62,.65-.93,1.57-.93,2.76,0,1.75,.75,3.43,2.24,5.03h-2.35c-1.19-1.53-1.79-3.31-1.79-5.35,0-1.75,.47-3.13,1.42-4.13,.95-1,2.22-1.5,3.81-1.5,1.26,0,2.49,.35,3.68,1.04,1.2,.69,2.69,1.94,4.46,3.73l4.47,4.52h.05v-9.12h2.02Z"></path></g><g><path class="cls-6" d="M106.58,25.84v12.92h-2.24v-10.13h-.04l-4.01,10.13h-1.49l-4.11-10.13h-.03v10.13h-2.07v-12.92h3.22l3.71,9.58h.05l3.92-9.58h3.08Zm1.88,.98c0-.36,.13-.66,.39-.91,.26-.24,.57-.37,.93-.37,.38,0,.7,.12,.96,.37,.25,.25,.38,.55,.38,.9s-.13,.65-.39,.89c-.26,.24-.57,.36-.95,.36s-.69-.12-.94-.36c-.26-.24-.38-.54-.38-.89Zm2.41,2.68v9.26h-2.18v-9.26h2.18Zm6.61,7.68c.32,0,.68-.07,1.07-.23,.39-.15,.75-.35,1.08-.59v2.03c-.35,.2-.74,.35-1.18,.45-.44,.1-.93,.15-1.46,.15-1.36,0-2.47-.43-3.32-1.29-.85-.86-1.28-1.96-1.28-3.3,0-1.49,.44-2.72,1.31-3.68,.87-.96,2.11-1.45,3.7-1.45,.41,0,.82,.05,1.24,.16,.42,.11,.75,.23,1,.36v2.09c-.34-.25-.68-.44-1.03-.57-.35-.14-.71-.2-1.08-.2-.86,0-1.55,.28-2.08,.84-.53,.56-.79,1.31-.79,2.26s.25,1.67,.76,2.19c.51,.52,1.2,.78,2.07,.78Zm8.36-7.83c.17,0,.33,.01,.47,.04s.26,.05,.35,.09v2.21c-.11-.08-.28-.16-.5-.24-.22-.08-.49-.11-.8-.11-.53,0-.99,.23-1.36,.68-.37,.45-.55,1.14-.55,2.08v4.68h-2.18v-9.26h2.18v1.46h.04c.2-.5,.5-.9,.9-1.18,.4-.29,.89-.43,1.45-.43Zm.94,4.92c0-1.53,.43-2.75,1.3-3.64,.87-.9,2.07-1.34,3.6-1.34,1.45,0,2.58,.43,3.39,1.29,.81,.86,1.22,2.03,1.22,3.49s-.43,2.7-1.3,3.59c-.87,.89-2.04,1.33-3.53,1.33s-2.58-.42-3.42-1.27c-.84-.84-1.27-2-1.27-3.46Zm2.27-.07c0,.97,.22,1.71,.66,2.22,.44,.51,1.07,.77,1.88,.77s1.4-.26,1.81-.77c.41-.51,.62-1.27,.62-2.27s-.21-1.75-.64-2.26c-.43-.51-1.03-.76-1.81-.76s-1.42,.27-1.86,.8c-.44,.53-.66,1.29-.66,2.28Zm10.49-2.26c0,.31,.1,.56,.3,.73,.2,.18,.64,.4,1.32,.67,.87,.35,1.48,.74,1.83,1.18,.35,.44,.53,.96,.53,1.58,0,.87-.33,1.57-1,2.1-.67,.53-1.58,.79-2.72,.79-.38,0-.81-.05-1.28-.14-.47-.09-.86-.21-1.18-.36v-2.14c.4,.28,.82,.5,1.28,.66,.46,.16,.87,.24,1.24,.24,.49,0,.86-.07,1.09-.21s.35-.37,.35-.69c0-.3-.12-.55-.36-.76s-.7-.45-1.38-.72c-.8-.34-1.38-.71-1.71-1.14-.34-.42-.5-.96-.5-1.6,0-.83,.33-1.52,1-2.06,.66-.54,1.52-.81,2.58-.81,.32,0,.69,.04,1.09,.11,.4,.07,.74,.17,1.01,.28v2.07c-.29-.19-.62-.36-1.01-.5-.38-.14-.77-.21-1.14-.21-.41,0-.74,.08-.97,.24-.23,.16-.35,.38-.35,.67Zm4.91,2.33c0-1.53,.43-2.75,1.3-3.64,.87-.9,2.07-1.34,3.6-1.34,1.45,0,2.58,.43,3.39,1.29,.81,.86,1.22,2.03,1.22,3.49s-.43,2.7-1.3,3.59c-.87,.89-2.04,1.33-3.53,1.33s-2.58-.42-3.42-1.27c-.84-.84-1.27-2-1.27-3.46Zm2.27-.07c0,.97,.22,1.71,.66,2.22,.44,.51,1.07,.77,1.88,.77s1.4-.26,1.81-.77c.41-.51,.62-1.27,.62-2.27s-.21-1.75-.64-2.26c-.43-.51-1.03-.76-1.81-.76s-1.42,.27-1.86,.8c-.44,.53-.66,1.29-.66,2.28Zm14.48-2.91h-3.25v7.48h-2.21v-7.48h-1.55v-1.78h1.55v-1.29c0-.97,.32-1.77,.95-2.39,.63-.62,1.45-.93,2.44-.93,.26,0,.5,.01,.7,.04,.2,.03,.38,.07,.54,.12v1.88c-.07-.04-.2-.09-.38-.15-.18-.06-.39-.09-.62-.09-.46,0-.81,.14-1.05,.43s-.37,.71-.37,1.27v1.12h3.25v-2.08l2.19-.67v2.75h2.21v1.78h-2.21v4.33c0,.57,.1,.97,.31,1.21,.21,.23,.53,.35,.98,.35,.13,0,.28-.03,.46-.09,.18-.06,.33-.13,.46-.22v1.8c-.14,.08-.37,.15-.69,.22s-.64,.1-.95,.1c-.92,0-1.61-.24-2.07-.73-.46-.49-.69-1.23-.69-2.21v-4.76Z"></path><g><rect class="cls-3" x="64.6" y="21.53" width="10.23" height="10.23"></rect><rect class="cls-8" x="75.9" y="21.53" width="10.23" height="10.23"></rect><rect class="cls-1" x="64.6" y="32.83" width="10.23" height="10.23"></rect><rect class="cls-5" x="75.9" y="32.83" width="10.23" height="10.23"></rect></g></g><g><path class="cls-6" d="M211.18,38.59h-2.96l-.86-2.68h-4.29l-.85,2.68h-2.94l4.39-12.06h3.22l4.29,12.06Zm-4.44-4.77l-1.3-4.05c-.1-.3-.16-.66-.2-1.09h-.07c-.03,.35-.1,.7-.21,1.05l-1.31,4.09h3.09Z"></path><path class="cls-6" d="M220.86,38.59h-2.66v-1.19h-.03c-.61,.93-1.49,1.4-2.67,1.4-1.08,0-1.94-.38-2.6-1.14-.66-.76-.98-1.82-.98-3.18s.36-2.57,1.09-3.42,1.67-1.29,2.84-1.29c1.11,0,1.88,.4,2.32,1.19h.03v-5.12h2.66v12.75Zm-2.61-4.19v-.65c0-.56-.16-1.03-.49-1.4s-.75-.56-1.27-.56c-.59,0-1.05,.23-1.38,.69s-.5,1.1-.5,1.91c0,.76,.16,1.34,.48,1.75,.32,.41,.76,.61,1.33,.61s.98-.22,1.32-.65c.34-.43,.51-1,.51-1.72Z"></path><path class="cls-6" d="M231.3,29.98l-3.2,8.61h-3.03l-3.05-8.61h2.84l1.5,5.31c.17,.6,.27,1.11,.29,1.53h.03c.04-.4,.14-.89,.31-1.48l1.53-5.36h2.78Z"></path><path class="cls-6" d="M240,35.04h-5.62c.09,1.25,.88,1.88,2.36,1.88,.95,0,1.78-.22,2.5-.67v1.92c-.8,.43-1.83,.64-3.1,.64-1.39,0-2.47-.38-3.24-1.16-.77-.77-1.15-1.85-1.15-3.23s.42-2.56,1.24-3.4c.83-.83,1.85-1.25,3.06-1.25s2.23,.37,2.91,1.12c.69,.75,1.03,1.76,1.03,3.04v1.12Zm-2.46-1.63c0-1.23-.5-1.85-1.5-1.85-.43,0-.79,.18-1.11,.53-.31,.35-.5,.79-.57,1.32h3.17Z"></path><path class="cls-6" d="M247.2,32.38c-.32-.17-.69-.26-1.12-.26-.58,0-1.03,.21-1.35,.64-.32,.42-.49,1-.49,1.73v4.11h-2.66v-8.61h2.66v1.6h.03c.42-1.17,1.18-1.75,2.27-1.75,.28,0,.5,.03,.66,.1v2.45Z"></path><path class="cls-6" d="M254.14,38.49c-.39,.21-.98,.31-1.77,.31-1.87,0-2.81-.97-2.81-2.92v-3.95h-1.4v-1.96h1.4v-1.86l2.65-.76v2.62h1.93v1.96h-1.93v3.48c0,.9,.36,1.35,1.07,1.35,.28,0,.57-.08,.87-.24v1.97Z"></path><path class="cls-6" d="M256.99,28.62c-.45,0-.82-.13-1.1-.4-.29-.27-.43-.59-.43-.98s.14-.72,.43-.98,.65-.38,1.1-.38,.82,.13,1.11,.38,.42,.58,.42,.98-.14,.73-.42,.99c-.28,.26-.65,.39-1.11,.39Zm1.31,9.98h-2.66v-8.61h2.66v8.61Z"></path><path class="cls-6" d="M259.97,38.37v-2.15c.44,.26,.87,.46,1.31,.59,.43,.13,.85,.19,1.23,.19,.47,0,.84-.06,1.11-.19,.27-.13,.41-.32,.41-.59,0-.17-.06-.31-.19-.42-.12-.11-.28-.21-.48-.29-.19-.08-.4-.16-.64-.23s-.45-.14-.66-.23c-.34-.13-.64-.27-.9-.42-.26-.15-.48-.32-.66-.52-.18-.2-.31-.42-.4-.68-.09-.26-.14-.56-.14-.92,0-.48,.11-.9,.32-1.24,.21-.35,.49-.63,.84-.85,.35-.22,.75-.38,1.2-.49,.45-.1,.92-.16,1.41-.16,.38,0,.77,.03,1.16,.09s.78,.15,1.16,.26v2.05c-.34-.2-.7-.34-1.08-.44-.38-.1-.76-.15-1.13-.15-.17,0-.34,.02-.49,.05-.15,.03-.29,.08-.41,.13s-.21,.13-.28,.23-.1,.2-.1,.32c0,.16,.05,.29,.15,.4,.1,.11,.23,.21,.4,.29,.16,.08,.34,.15,.54,.22,.2,.07,.4,.13,.59,.2,.35,.12,.67,.26,.96,.4,.29,.15,.53,.32,.74,.51,.21,.2,.36,.43,.47,.69,.11,.26,.16,.58,.16,.94,0,.51-.11,.95-.33,1.31s-.52,.66-.88,.88-.79,.39-1.27,.5c-.48,.1-.98,.16-1.49,.16-.95,0-1.83-.15-2.63-.44Z"></path><path class="cls-6" d="M269.46,28.62c-.45,0-.82-.13-1.1-.4-.29-.27-.43-.59-.43-.98s.14-.72,.43-.98,.65-.38,1.1-.38,.82,.13,1.11,.38,.42,.58,.42,.98-.14,.73-.42,.99c-.28,.26-.65,.39-1.11,.39Zm1.31,9.98h-2.66v-8.61h2.66v8.61Z"></path><path class="cls-6" d="M281.33,38.59h-2.65v-4.79c0-1.33-.48-2-1.43-2-.46,0-.84,.18-1.14,.53s-.45,.8-.45,1.35v4.91h-2.66v-8.61h2.66v1.36h.03c.63-1.05,1.56-1.57,2.77-1.57,1.91,0,2.86,1.18,2.86,3.55v5.27Z"></path><path class="cls-6" d="M291.88,37.61c0,1.6-.46,2.84-1.39,3.71-.93,.88-2.27,1.32-4.02,1.32-1.16,0-2.08-.17-2.76-.5v-2.24c.89,.52,1.78,.77,2.68,.77s1.59-.24,2.09-.71c.49-.47,.74-1.12,.74-1.93v-.68h-.03c-.61,.97-1.5,1.45-2.68,1.45-1.1,0-1.97-.39-2.62-1.16s-.97-1.81-.97-3.11c0-1.46,.36-2.62,1.08-3.47s1.66-1.29,2.83-1.29c1.05,0,1.83,.4,2.36,1.21h.03v-1h2.66v7.63Zm-2.62-3.15v-.68c0-.54-.16-1.01-.48-1.39-.32-.38-.74-.58-1.26-.58-.59,0-1.05,.23-1.39,.69-.34,.46-.5,1.11-.5,1.94,0,.72,.16,1.29,.48,1.7,.32,.42,.76,.63,1.31,.63s.99-.21,1.33-.64c.34-.42,.51-.98,.51-1.68Z"></path></g><rect class="cls-7" x="181.97" y="21.53" width="1.62" height="21.53"></rect><g><path class="cls-2" d="M72.09,85.09v11.4h-3.53v-30.16h8.29c3.22,0,5.72,.79,7.5,2.36,1.77,1.57,2.66,3.79,2.66,6.65s-.99,5.2-2.95,7.02c-1.97,1.82-4.63,2.73-7.98,2.73h-3.97Zm0-15.56v12.37h3.7c2.44,0,4.3-.56,5.58-1.67,1.28-1.11,1.92-2.69,1.92-4.72,0-3.98-2.36-5.97-7.07-5.97h-4.14Z"></path><path class="cls-2" d="M106.03,96.49h-3.45v-3.36h-.08c-1.5,2.58-3.71,3.87-6.62,3.87-2.15,0-3.82-.57-5.04-1.7-1.21-1.14-1.82-2.64-1.82-4.52,0-4.02,2.37-6.36,7.11-7.02l6.46-.9c0-3.66-1.48-5.49-4.44-5.49-2.59,0-4.93,.88-7.02,2.65v-3.53c2.12-1.35,4.56-2.02,7.32-2.02,5.06,0,7.59,2.68,7.59,8.03v14.01Zm-3.45-10.89l-5.19,.72c-1.6,.23-2.8,.62-3.62,1.19-.81,.57-1.22,1.57-1.22,3.02,0,1.05,.38,1.91,1.13,2.58,.75,.67,1.75,1,3,1,1.71,0,3.12-.6,4.24-1.8,1.11-1.2,1.67-2.72,1.67-4.55v-2.15Z"></path><path class="cls-2" d="M123.54,78.44c-.6-.46-1.47-.69-2.61-.69-1.47,0-2.7,.69-3.69,2.08-.99,1.39-1.48,3.28-1.48,5.68v10.98h-3.45v-21.53h3.45v4.44h.08c.49-1.51,1.24-2.69,2.25-3.54,1.01-.85,2.14-1.27,3.39-1.27,.9,0,1.58,.1,2.06,.29v3.58Z"></path><path class="cls-2" d="M138.3,96.27c-.81,.45-1.89,.67-3.22,.67-3.77,0-5.66-2.1-5.66-6.31v-12.74h-3.7v-2.94h3.7v-5.26l3.45-1.11v6.37h5.43v2.94h-5.43v12.13c0,1.44,.24,2.48,.74,3.09,.49,.62,1.3,.93,2.44,.93,.87,0,1.62-.24,2.25-.72v2.94Z"></path><path class="cls-2" d="M160.56,96.49h-3.45v-12.28c0-4.57-1.67-6.86-5.01-6.86-1.72,0-3.15,.65-4.28,1.95-1.13,1.3-1.69,2.93-1.69,4.91v12.28h-3.45v-21.53h3.45v3.58h.08c1.63-2.72,3.98-4.08,7.07-4.08,2.36,0,4.16,.76,5.4,2.28,1.25,1.52,1.87,3.72,1.87,6.59v13.16Z"></path><path class="cls-2" d="M184.15,86.58h-15.2c.06,2.4,.7,4.25,1.93,5.55,1.23,1.3,2.93,1.96,5.09,1.96,2.43,0,4.65-.8,6.69-2.4v3.24c-1.89,1.37-4.4,2.06-7.51,2.06s-5.43-.98-7.17-2.93c-1.74-1.96-2.61-4.71-2.61-8.25,0-3.35,.95-6.08,2.85-8.19,1.9-2.11,4.26-3.17,7.08-3.17s5,.91,6.54,2.73c1.54,1.82,2.31,4.35,2.31,7.59v1.81Zm-3.53-2.92c-.01-1.99-.49-3.54-1.44-4.65-.95-1.11-2.26-1.66-3.94-1.66s-3.01,.58-4.14,1.75c-1.14,1.16-1.84,2.69-2.1,4.56h11.63Z"></path><path class="cls-2" d="M200.38,78.44c-.6-.46-1.47-.69-2.61-.69-1.47,0-2.7,.69-3.69,2.08-.99,1.39-1.48,3.28-1.48,5.68v10.98h-3.45v-21.53h3.45v4.44h.08c.49-1.51,1.24-2.69,2.25-3.54,1.01-.85,2.14-1.27,3.39-1.27,.9,0,1.58,.1,2.06,.29v3.58Z"></path></g><path class="cls-7" d="M344.04,.51V117.93H.51V.51H344.04m.51-.51H0V118.44H344.55V0h0Z"></path></g></g></svg>