<svg xmlns="http://www.w3.org/2000/svg" id="Layer_2" data-name="Layer 2" viewBox="0 0 342.62 36.71"><g id="Layer_1-2" data-name="Layer 1"><g><path d="M34.36,36.12h-3.95V13.5c0-1.78,.11-3.96,.33-6.53h-.09c-.38,1.52-.71,2.61-1.01,3.27l-11.48,25.88h-1.93L4.72,10.43c-.31-.69-.65-1.84-1.01-3.45h-.09c.12,1.35,.19,3.54,.19,6.58v22.57H0V2.44H5.21L15.55,25.93c.78,1.78,1.29,3.13,1.53,4.04h.16c.78-2.16,1.32-3.54,1.62-4.13L29.4,2.44h4.96V36.12Z"></path><path d="M45.98,3.45c0,.72-.25,1.32-.75,1.8-.5,.48-1.1,.72-1.78,.72s-1.3-.23-1.78-.69c-.49-.46-.73-1.07-.73-1.82,0-.67,.24-1.26,.72-1.75,.48-.49,1.08-.74,1.8-.74s1.32,.24,1.81,.73c.48,.49,.73,1.07,.73,1.76m-.66,32.67h-3.85V12.07h3.85v24.05Z"></path><path d="M68.12,35.02c-1.86,1.13-4.06,1.69-6.6,1.69-2.19,0-4.16-.5-5.91-1.51-1.75-1.01-3.1-2.44-4.07-4.29-.97-1.85-1.46-3.92-1.46-6.22,0-3.97,1.14-7.17,3.42-9.58,2.28-2.41,5.31-3.62,9.1-3.62,2.1,0,3.95,.41,5.57,1.22v3.95c-1.8-1.25-3.71-1.88-5.73-1.88-2.49,0-4.51,.89-6.07,2.67-1.56,1.78-2.34,4.07-2.34,6.89s.74,5.02,2.22,6.65c1.48,1.63,3.46,2.44,5.95,2.44,2.1,0,4.07-.69,5.92-2.07v3.66Z"></path><path d="M85.28,15.97c-.69-.52-1.67-.77-2.94-.77-1.71,0-3.09,.8-4.16,2.41-1.06,1.61-1.6,3.69-1.6,6.26v12.26h-3.85V12.07h3.85v4.96h.09c.53-1.66,1.35-2.97,2.47-3.93,1.11-.96,2.39-1.44,3.83-1.44,1,0,1.77,.11,2.3,.33v3.99Z"></path><path d="M109.49,24c0,3.82-1.08,6.89-3.25,9.22-2.17,2.33-5.08,3.49-8.72,3.49s-6.39-1.13-8.51-3.39c-2.12-2.26-3.18-5.24-3.18-8.94,0-3.98,1.09-7.12,3.26-9.43,2.18-2.31,5.17-3.46,8.99-3.46,3.57,0,6.36,1.11,8.38,3.35,2.02,2.23,3.03,5.29,3.03,9.17m-3.95,.14c0-3.02-.67-5.34-2.01-6.95-1.34-1.61-3.25-2.42-5.74-2.42s-4.43,.83-5.87,2.48c-1.44,1.65-2.16,3.98-2.16,6.99s.72,5.13,2.17,6.75c1.45,1.62,3.4,2.43,5.86,2.43s4.42-.8,5.75-2.39c1.33-1.6,2-3.89,2-6.88"></path><path d="M127.38,29.68c0,2.08-.8,3.77-2.41,5.07-1.61,1.3-3.74,1.95-6.4,1.95-2.27,0-4.26-.48-5.97-1.46v-4.13c1.89,1.54,3.98,2.3,6.25,2.3,3.05,0,4.58-1.12,4.58-3.36,0-.91-.3-1.65-.89-2.22-.6-.57-1.95-1.34-4.06-2.31-2.13-.91-3.63-1.88-4.51-2.92-.88-1.04-1.31-2.42-1.31-4.14,0-1.99,.8-3.65,2.39-4.98,1.6-1.33,3.62-2,6.08-2,1.89,0,3.61,.38,5.14,1.13v3.87c-1.56-1.14-3.38-1.71-5.45-1.71-1.27,0-2.29,.31-3.07,.94-.77,.63-1.16,1.43-1.16,2.42,0,1.07,.3,1.88,.89,2.45,.59,.57,1.82,1.25,3.69,2.03,2.28,.97,3.89,1.99,4.81,3.05,.92,1.06,1.39,2.4,1.39,4.02"></path><path d="M153.65,24c0,3.82-1.08,6.89-3.25,9.22-2.17,2.33-5.08,3.49-8.72,3.49s-6.39-1.13-8.51-3.39c-2.12-2.26-3.18-5.24-3.18-8.94,0-3.98,1.09-7.12,3.26-9.43,2.18-2.31,5.17-3.46,8.99-3.46,3.57,0,6.36,1.11,8.38,3.35,2.02,2.23,3.03,5.29,3.03,9.17m-3.95,.14c0-3.02-.67-5.34-2.01-6.95-1.34-1.61-3.25-2.42-5.74-2.42s-4.43,.83-5.87,2.48c-1.44,1.65-2.16,3.98-2.16,6.99s.72,5.13,2.17,6.75c1.45,1.62,3.4,2.43,5.86,2.43s4.42-.8,5.75-2.39c1.33-1.6,2-3.89,2-6.88"></path><path d="M169.43,3.9c-.75-.42-1.61-.63-2.56-.63-2.69,0-4.04,1.7-4.04,5.1v3.71h5.64v3.26h-5.64v20.78h-3.85V15.34h-4.09v-3.26h4.09v-3.9c0-2.44,.72-4.41,2.16-5.92,1.44-1.5,3.27-2.26,5.49-2.26,1.17,0,2.11,.14,2.79,.42V3.9Z"></path><path d="M183.42,35.88c-.92,.52-2.13,.77-3.62,.77-4.2,0-6.3-2.36-6.3-7.09V15.34h-4.13v-3.26h4.13V6.2l3.85-1.25v7.12h6.06v3.26h-6.06v13.57c0,1.61,.27,2.76,.82,3.44,.55,.68,1.46,1.02,2.75,1.02,.95,0,1.78-.26,2.49-.77v3.29Z"></path><path d="M218.47,12.49c0,3.26-1.12,5.88-3.37,7.88-2.25,2-5.19,2.99-8.84,2.99h-4.44v12.75h-3.95V2.44h9.25c3.6,0,6.39,.88,8.37,2.64,1.98,1.76,2.97,4.23,2.97,7.41m-4.13,.21c0-4.46-2.63-6.69-7.89-6.69h-4.63v13.81h4.13c2.71,0,4.78-.61,6.22-1.84,1.44-1.23,2.16-2.99,2.16-5.27"></path><path d="M238.57,36.12h-3.85v-3.76h-.09c-1.67,2.9-4.14,4.34-7.4,4.34-2.32,0-4.17-.63-5.57-1.89-1.39-1.26-2.09-2.95-2.09-5.08,0-4.48,2.65-7.09,7.94-7.84l7.21-1.01c0-4.07-1.65-6.11-4.96-6.11-2.9,0-5.51,.98-7.84,2.94v-3.95c.7-.53,1.91-1.04,3.62-1.54,1.71-.49,3.23-.74,4.56-.74,5.65,0,8.48,3,8.48,9v15.64Zm-3.85-12.16l-5.82,.82c-1.99,.28-3.38,.76-4.18,1.42-.8,.66-1.2,1.74-1.2,3.23,0,1.21,.43,2.17,1.29,2.9,.86,.73,1.97,1.09,3.31,1.09,1.91,0,3.49-.67,4.73-2.02,1.25-1.34,1.87-3.03,1.87-5.05v-2.4Z"></path><path d="M257.16,15.97c-.69-.52-1.67-.77-2.94-.77-1.71,0-3.09,.8-4.16,2.41-1.06,1.61-1.6,3.69-1.6,6.26v12.26h-3.85V12.07h3.85v4.96h.09c.53-1.66,1.35-2.97,2.47-3.93,1.11-.96,2.39-1.44,3.83-1.44,1,0,1.77,.11,2.3,.33v3.99Z"></path><path d="M275.11,35.88c-.92,.52-2.13,.77-3.62,.77-4.2,0-6.3-2.36-6.3-7.09V15.34h-4.13v-3.26h4.13V6.2l3.85-1.25v7.12h6.06v3.26h-6.06v13.57c0,1.61,.27,2.76,.82,3.44,.55,.68,1.46,1.02,2.75,1.02,.95,0,1.78-.26,2.49-.77v3.29Z"></path><path d="M300.46,36.12h-3.85v-13.71c0-5.09-1.86-7.63-5.59-7.63-1.89,0-3.48,.72-4.76,2.15-1.28,1.43-1.91,3.26-1.91,5.48v13.71h-3.85V12.07h3.85v3.99h.09c1.8-3.05,4.43-4.58,7.89-4.58,2.65,0,4.66,.86,6.05,2.58,1.39,1.72,2.08,4.17,2.08,7.33v14.72Z"></path><path d="M325.65,25.06h-16.98c.06,2.71,.78,4.78,2.15,6.21,1.37,1.43,3.27,2.15,5.7,2.15,2.72,0,5.2-.88,7.44-2.63v3.59c-2.1,1.55-4.88,2.33-8.36,2.33s-6.1-1.11-8.03-3.32c-1.93-2.21-2.89-5.28-2.89-9.19,0-2.38,.48-4.55,1.44-6.52,.96-1.97,2.29-3.49,3.98-4.57,1.69-1.08,3.57-1.62,5.64-1.62,3.12,0,5.55,1.02,7.29,3.04,1.75,2.03,2.62,4.87,2.62,8.51v2.02Zm-3.95-3.26c-.03-2.22-.57-3.95-1.61-5.18-1.04-1.23-2.51-1.84-4.4-1.84-1.78,0-3.31,.64-4.58,1.93-1.27,1.28-2.07,2.98-2.4,5.1h12.99Z"></path><path d="M342.62,15.97c-.69-.52-1.67-.77-2.94-.77-1.71,0-3.09,.8-4.16,2.41-1.06,1.61-1.6,3.69-1.6,6.26v12.26h-3.85V12.07h3.85v4.96h.09c.53-1.66,1.35-2.97,2.47-3.93,1.11-.96,2.39-1.44,3.83-1.44,1,0,1.77,.11,2.3,.33v3.99Z"></path></g></g></svg>